<svg width="50" height="50" viewBox="0 0 50 50" fill="none" xmlns="http://www.w3.org/2000/svg">
<g clip-path="url(#clip0_26_934)">
<path d="M25 25L4 13L25 1L46 13L25 25Z" fill="#94E16A" fill-opacity="0.927357"/>
<path d="M4 37V13L25 25V49L4 37Z" fill="#7B6E41" fill-opacity="0.972931"/>
<path d="M46 37V13L25 25V49L46 37Z" fill="#302E11" fill-opacity="0.970366"/>
<path d="M22.375 23.5L25 22L27.625 23.5L25 25L22.375 23.5Z" fill="#ADF184"/>
<path d="M22.375 20.5L25 19L27.625 20.5L25 22L22.375 20.5Z" fill="#7BD454"/>
<path d="M22.375 17.5L25 16L27.625 17.5L25 19L22.375 17.5Z" fill="#9CE86F"/>
<path d="M22.375 14.5L25 13L27.625 14.5L25 16L22.375 14.5Z" fill="#9CE86F"/>
<path d="M22.375 11.5L25 10L27.625 11.5L25 13L22.375 11.5Z" fill="#8ADF5E"/>
<path d="M22.375 8.5L25 7L27.625 8.5L25 10L22.375 8.5Z" fill="#9CE86F"/>
<path d="M22.375 5.5L25 4L27.625 5.5L25 7L22.375 5.5Z" fill="#8ADF5E"/>
<path d="M22.375 2.5L25 1L27.625 2.5L25 4L22.375 2.5Z" fill="#8ADF5E"/>
<path d="M25 22L27.625 20.5L30.25 22L27.625 23.5L25 22Z" fill="#8ADF5E"/>
<path d="M25 19L27.625 17.5L30.25 19L27.625 20.5L25 19Z" fill="#ADF184"/>
<path d="M25 16L27.625 14.5L30.25 16L27.625 17.5L25 16Z" fill="#7BD454"/>
<path d="M25 13L27.625 11.5L30.25 13L27.625 14.5L25 13Z" fill="#ADF184"/>
<path d="M25 10L27.625 8.5L30.25 10L27.625 11.5L25 10Z" fill="#9CE86F"/>
<path d="M25 7L27.625 5.5L30.25 7L27.625 8.5L25 7Z" fill="#9CE86F"/>
<path d="M25 4L27.625 2.5L30.25 4L27.625 5.5L25 4Z" fill="#9CE86F"/>
<path d="M17.125 20.5L19.75 19L22.375 20.5L19.75 22L17.125 20.5Z" fill="#9CE86F"/>
<path d="M17.125 17.5L19.75 16L22.375 17.5L19.75 19L17.125 17.5Z" fill="#9CE86F"/>
<path d="M17.125 14.5L19.75 13L22.375 14.5L19.75 16L17.125 14.5Z" fill="#ADF184"/>
<path d="M17.125 11.5L19.75 10L22.375 11.5L19.75 13L17.125 11.5Z" fill="#ADF184"/>
<path d="M17.125 8.5L19.75 7L22.375 8.5L19.75 10L17.125 8.5Z" fill="#7BD552"/>
<path d="M17.125 5.5L19.75 4L22.375 5.5L19.75 7L17.125 5.5Z" fill="#8ADF5E"/>
<path d="M19.75 22L22.375 20.5L25 22L22.375 23.5L19.75 22Z" fill="#8ADF5E"/>
<path d="M19.75 19L22.375 17.5L25 19L22.375 20.5L19.75 19Z" fill="#ADF184"/>
<path d="M19.75 16L22.375 14.5L25 16L22.375 17.5L19.75 16Z" fill="#8ADF5E"/>
<path d="M19.75 13L22.375 11.5L25 13L22.375 14.5L19.75 13Z" fill="#9CE86F"/>
<path d="M19.75 10L22.375 8.5L25 10L22.375 11.5L19.75 10Z" fill="#9CE86F"/>
<path d="M19.75 7L22.375 5.5L25 7L22.375 8.5L19.75 7Z" fill="#ADF184"/>
<path d="M19.75 4L22.375 2.5L25 4L22.375 5.5L19.75 4Z" fill="#9CE86F"/>
<path d="M11.875 17.5L14.5 16L17.125 17.5L14.5 19L11.875 17.5Z" fill="#9CE86F"/>
<path d="M11.875 14.5L14.5 13L17.125 14.5L14.5 16L11.875 14.5Z" fill="#8ADF5E"/>
<path d="M11.875 11.5L14.5 10L17.125 11.5L14.5 13L11.875 11.5Z" fill="#9CE86F"/>
<path d="M11.875 8.5L14.5 7L17.125 8.5L14.5 10L11.875 8.5Z" fill="#ADF184"/>
<path d="M14.5 19L17.125 17.5L19.75 19L17.125 20.5L14.5 19Z" fill="#ADF184"/>
<path d="M14.5 16L17.125 14.5L19.75 16L17.125 17.5L14.5 16Z" fill="#ADF184"/>
<path d="M14.5 13L17.125 11.5L19.75 13L17.125 14.5L14.5 13Z" fill="#9CE86F"/>
<path d="M14.5 10L17.125 8.5L19.75 10L17.125 11.5L14.5 10Z" fill="#8ADF5E"/>
<path d="M14.5 7L17.125 5.5L19.75 7L17.125 8.5L14.5 7Z" fill="#9CE86F"/>
<path d="M6.625 14.5L9.25 13L11.875 14.5L9.25 16L6.625 14.5Z" fill="#9CE86F"/>
<path d="M6.625 11.5L9.25 10L11.875 11.5L9.25 13L6.625 11.5Z" fill="#8ADF5E"/>
<path d="M9.25 16L11.875 14.5L14.5 16L11.875 17.5L9.25 16Z" fill="#8ADF5E"/>
<path d="M9.25 13L11.875 11.5L14.5 13L11.875 14.5L9.25 13Z" fill="#7BD552"/>
<path d="M9.25 10L11.875 8.5L14.5 10L11.875 11.5L9.25 10Z" fill="#9CE86F"/>
<path d="M4 13L6.625 11.5L9.25 13L6.625 14.5L4 13Z" fill="#ADF184"/>
<path d="M35.5 19L32.875 17.5L30.25 19L32.875 20.5L35.5 19Z" fill="#ADF184"/>
<path d="M35.5 16L32.875 14.5L30.25 16L32.875 17.5L35.5 16Z" fill="#ADF184"/>
<path d="M35.5 13L32.875 11.5L30.25 13L32.875 14.5L35.5 13Z" fill="#8ADF5E"/>
<path d="M35.5 10L32.875 8.5L30.25 10L32.875 11.5L35.5 10Z" fill="#8ADF5E"/>
<path d="M35.5 7L32.875 5.5L30.25 7L32.875 8.5L35.5 7Z" fill="#9CE86F"/>
<path d="M43.375 14.5L40.75 13L38.125 14.5L40.75 16L43.375 14.5Z" fill="#9CE86F"/>
<path d="M32.875 20.5L30.25 19L27.625 20.5L30.25 22L32.875 20.5Z" fill="#9CE86F"/>
<path d="M32.875 17.5L30.25 16L27.625 17.5L30.25 19L32.875 17.5Z" fill="#9CE86F"/>
<path d="M32.875 14.5L30.25 13L27.625 14.5L30.25 16L32.875 14.5Z" fill="#9CE86F"/>
<path d="M32.875 11.5L30.25 10L27.625 11.5L30.25 13L32.875 11.5Z" fill="#ADF184"/>
<path d="M32.875 8.5L30.25 7L27.625 8.5L30.25 10L32.875 8.5Z" fill="#ADF184"/>
<path d="M32.875 5.5L30.25 4L27.625 5.5L30.25 7L32.875 5.5Z" fill="#8ADF5E"/>
<path d="M40.75 16L38.125 14.5L35.5 16L38.125 17.5L40.75 16Z" fill="#8ADF5E"/>
<path d="M40.75 13L38.125 11.5L35.5 13L38.125 14.5L40.75 13Z" fill="#ADF184"/>
<path d="M40.75 10L38.125 8.5L35.5 10L38.125 11.5L40.75 10Z" fill="#9CE86F"/>
<path d="M43.375 11.5L40.75 10L38.125 11.5L40.75 13L43.375 11.5Z" fill="#8ADF5E"/>
<path d="M38.125 17.5L35.5 16L32.875 17.5L35.5 19L38.125 17.5Z" fill="#9CE86F"/>
<path d="M38.125 14.5L35.5 13L32.875 14.5L35.5 16L38.125 14.5Z" fill="#9CE86F"/>
<path d="M38.125 11.5L35.5 10L32.875 11.5L35.5 13L38.125 11.5Z" fill="#9CE86F"/>
<path d="M38.125 8.5L35.5 7L32.875 8.5L35.5 10L38.125 8.5Z" fill="#ADF184"/>
<path d="M46 13L43.375 11.5L40.75 13L43.375 14.5L46 13Z" fill="#ADF184"/>
<path d="M20.0929 21.804L19.75 22L22.375 23.5L22.7179 23.304L20.0929 21.804Z" fill="#B0F480"/>
<path d="M22.7179 23.304L22.375 23.5L24.6571 24.804L25 25L25.3429 24.804L27.625 23.5L27.282 23.304L25 24.608L22.7179 23.304Z" fill="#C9FA9E"/>
<path d="M17.4679 20.304L17.125 20.5L19.75 22L20.0929 21.804L17.4679 20.304Z" fill="#BAFA8D"/>
<path d="M12.2179 17.304L11.875 17.5L14.5 19L14.8429 18.804L12.2179 17.304Z" fill="#BAFA8D"/>
<path d="M14.843 18.8041L14.5 19.0001L17.125 20.5L17.468 20.3041L14.843 18.8041Z" fill="#C6F99D"/>
<path d="M9.59294 15.804L9.25 16L11.875 17.5L12.2179 17.304L9.59294 15.804Z" fill="#ADF47F"/>
<path d="M6.96794 14.304L6.625 14.5L9.24999 16L9.59293 15.804L6.96794 14.304Z" fill="#BBFA8E"/>
<path d="M4.34294 12.804L4 13L6.62499 14.5L6.96793 14.304L4.34294 12.804Z" fill="#C8FB9E"/>
<path d="M29.907 21.804L30.25 22L27.625 23.5L27.282 23.304L29.907 21.804Z" fill="#B0F480"/>
<path d="M32.532 20.304L32.875 20.5L30.25 22L29.907 21.804L32.532 20.304Z" fill="#BAFA8D"/>
<path d="M37.782 17.304L38.125 17.5L35.5 19L35.157 18.804L37.782 17.304Z" fill="#BAFA8D"/>
<path d="M35.157 18.8041L35.4999 19.0001L32.8749 20.5L32.532 20.3041L35.157 18.8041Z" fill="#C6F99D"/>
<path d="M40.407 15.804L40.75 16L38.125 17.5L37.782 17.304L40.407 15.804Z" fill="#ADF47F"/>
<path d="M43.032 14.304L43.375 14.5L40.75 16L40.407 15.804L43.032 14.304Z" fill="#BBFA8E"/>
<path d="M45.657 12.804L46 13L43.375 14.5L43.032 14.304L45.657 12.804Z" fill="#C8FB9E"/>
<path d="M4 34L6.625 35.5L6.625 38.5L4 37L4 34Z" fill="#66432C"/>
<path d="M6.625 32.5L9.25 34L9.25 37L6.625 35.5L6.625 32.5Z" fill="#976846"/>
<path d="M9.25 31L11.875 32.5L11.875 35.5L9.25 34L9.25 31Z" fill="#66432C"/>
<path d="M11.875 29.5L14.5 31L14.5 34L11.875 32.5L11.875 29.5Z" fill="#986746"/>
<path d="M14.5 28L17.125 29.5L17.125 32.5L14.5 31L14.5 28Z" fill="#66432C"/>
<path d="M17.125 26.5L19.75 28L19.75 31L17.125 29.5L17.125 26.5Z" fill="#66432C"/>
<path d="M19.75 25L22.375 26.5L22.375 29.5L19.75 28L19.75 25Z" fill="#66432C"/>
<path d="M22.375 23.5L25 25L25 28L22.375 26.5L22.375 23.5Z" fill="#52A434"/>
<path d="M6.625 35.5L9.25 37L9.25 40L6.625 38.5L6.625 35.5Z" fill="#81553B"/>
<path d="M9.25 34L11.875 35.5L11.875 38.5L9.25 37L9.25 34Z" fill="#66432C"/>
<path d="M11.875 32.5L14.5 34L14.5 37L11.875 35.5L11.875 32.5Z" fill="#66432C"/>
<path d="M14.5 31L17.125 32.5L17.125 35.5L14.5 34L14.5 31Z" fill="#81553B"/>
<path d="M17.125 29.5L19.75 31L19.75 34L17.125 32.5L17.125 29.5Z" fill="#81553B"/>
<path d="M19.75 28L22.375 29.5L22.375 32.5L19.75 31L19.75 28Z" fill="#81553B"/>
<path d="M22.375 26.5L25 28L25 31L22.375 29.5L22.375 26.5Z" fill="#6BC348"/>
<path d="M4 28L6.625 29.5L6.625 32.5L4 31L4 28Z" fill="#AE7952"/>
<path d="M6.625 26.5L9.25 28L9.25 31L6.625 29.5L6.625 26.5Z" fill="#66432C"/>
<path d="M9.25 25L11.875 26.5L11.875 29.5L9.25 28L9.25 25Z" fill="#986746"/>
<path d="M11.875 23.5L14.5 25L14.5 28L11.875 26.5L11.875 23.5Z" fill="#66432C"/>
<path d="M14.5 22L17.125 23.5L17.125 26.5L14.5 25L14.5 22Z" fill="#52A434"/>
<path d="M17.125 20.5L19.75 22L19.75 25L17.125 23.5L17.125 20.5Z" fill="#52A434"/>
<path d="M4 31L6.625 32.5L6.625 35.5L4 34L4 31Z" fill="#81553B"/>
<path d="M6.625 29.5L9.25 31L9.25 34L6.625 32.5L6.625 29.5Z" fill="#81553B"/>
<path d="M9.25 28L11.875 29.5L11.875 32.5L9.25 31L9.25 28Z" fill="#66432C"/>
<path d="M11.875 26.5L14.5 28L14.5 31L11.875 29.5L11.875 26.5Z" fill="#AE7952"/>
<path d="M14.5 25L17.125 26.5L17.125 29.5L14.5 28L14.5 25Z" fill="#6BC348"/>
<path d="M17.125 23.5L19.75 25L19.75 28L17.125 26.5L17.125 23.5Z" fill="#6BC348"/>
<path d="M19.75 22L22.375 23.5L22.375 26.5L19.75 25L19.75 22Z" fill="#6BC348"/>
<path d="M4 22L6.625 23.5L6.625 26.5L4 25L4 22Z" fill="#986746"/>
<path d="M6.625 20.5L9.25 22L9.25 25L6.625 23.5L6.625 20.5Z" fill="#99918B"/>
<path d="M9.25 19L11.875 20.5L11.875 23.5L9.25 22L9.25 19Z" fill="#52A434"/>
<path d="M11.875 17.5L14.5 19L14.5 22L11.875 20.5L11.875 17.5Z" fill="#86D461"/>
<path d="M4 25L6.625 26.5L6.625 29.5L4 28L4 25Z" fill="#81553B"/>
<path d="M6.625 23.5L9.25 25L9.25 28L6.625 26.5L6.625 23.5Z" fill="#81553B"/>
<path d="M9.25 22L11.875 23.5L11.875 26.5L9.25 25L9.25 22Z" fill="#66432C"/>
<path d="M11.875 20.5L14.5 22L14.5 25L11.875 23.5L11.875 20.5Z" fill="#3C8526"/>
<path d="M14.5 19L17.125 20.5L17.125 23.5L14.5 22L14.5 19Z" fill="#6BC348"/>
<path d="M4 16L6.625 17.5L6.625 20.5L4 19L4 16Z" fill="#52A434"/>
<path d="M6.625 14.5L9.25 16L9.25 19L6.625 17.5L6.625 14.5Z" fill="#52A434"/>
<path d="M4 19L6.625 20.5L6.625 23.5L4 22L4 19Z" fill="#66432C"/>
<path d="M6.625 17.5L9.25 19L9.25 22L6.625 20.5L6.625 17.5Z" fill="#66432C"/>
<path d="M9.25 16L11.875 17.5L11.875 20.5L9.25 19L9.25 16Z" fill="#6BC348"/>
<path d="M4 13L6.625 14.5L6.625 17.5L4 16L4 13Z" fill="#86D461"/>
<path d="M14.5 43L14.5 40L11.875 38.5L11.875 41.5L14.5 43Z" fill="#81553B"/>
<path d="M17.125 41.5L17.125 38.5L14.5 37L14.5 40L17.125 41.5Z" fill="#986746"/>
<path d="M19.75 40L19.75 37L17.125 35.5L17.125 38.5L19.75 40Z" fill="#81553B"/>
<path d="M22.375 38.5L22.375 35.5L19.75 34L19.75 37L22.375 38.5Z" fill="#66432C"/>
<path d="M25 37L25 34L22.375 32.5L22.375 35.5L25 37Z" fill="#66432C"/>
<path d="M22.375 47.5L22.375 44.5L19.75 43L19.75 46L22.375 47.5Z" fill="#66432C"/>
<path d="M11.875 41.5L11.875 38.5L9.25 37L9.25 40L11.875 41.5Z" fill="#99918B"/>
<path d="M14.5 40L14.5 37L11.875 35.5L11.875 38.5L14.5 40Z" fill="#A77956"/>
<path d="M17.125 38.5L17.125 35.5L14.5 34L14.5 37L17.125 38.5Z" fill="#99918B"/>
<path d="M19.75 37L19.75 34L17.125 32.5L17.125 35.5L19.75 37Z" fill="#AE7952"/>
<path d="M22.375 35.5L22.375 32.5L19.75 31L19.75 34L22.375 35.5Z" fill="#986746"/>
<path d="M25 34L25 31L22.375 29.5L22.375 32.5L25 34Z" fill="#52A434"/>
<path d="M19.75 46L19.75 43L17.125 41.5L17.125 44.5L19.75 46Z" fill="#986746"/>
<path d="M22.375 44.5L22.375 41.5L19.75 40L19.75 43L22.375 44.5Z" fill="#81553B"/>
<path d="M25 43L25 40L22.375 38.5L22.375 41.5L25 43Z" fill="#81553B"/>
<path d="M25 46L25 43L22.375 41.5L22.375 44.5L25 46Z" fill="#986746"/>
<path d="M17.125 44.5L17.125 41.5L14.5 40L14.5 43L17.125 44.5Z" fill="#81553B"/>
<path d="M19.75 43L19.75 40L17.125 38.5L17.125 41.5L19.75 43Z" fill="#AE7952"/>
<path d="M22.375 41.5L22.375 38.5L19.75 37L19.75 40L22.375 41.5Z" fill="#986746"/>
<path d="M25 40L25 37L22.375 35.5L22.375 38.5L25 40Z" fill="#66432C"/>
<path d="M25 49L25 46L22.375 44.5L22.375 47.5L25 49Z" fill="#AE7952"/>
<path d="M4 19V19.1804L6.62499 20.6804V20.5L4 19Z" fill="#4B301B"/>
<path d="M9.25 22V22.1804L14.5 25.1804V25L9.25 22Z" fill="#4B301B"/>
<path d="M6.625 17.5V17.6804L9.24999 19.1804V19L6.625 17.5Z" fill="#4B301B"/>
<path d="M14.5 28V28.1804L17.125 29.6804V29.5L14.5 28Z" fill="#4B301B"/>
<path d="M17.125 26.5V26.6804L19.75 28.1804V28L17.125 26.5Z" fill="#4B301B"/>
<path d="M19.75 25V25.1804L22.375 26.6804V26.5L19.75 25Z" fill="#4B301B"/>
<path d="M22.375 32.5V32.6804L25 34.1804V34L22.375 32.5Z" fill="#4B301B"/>
<path d="M19.75 34V34.1804L22.375 35.6804V35.5L19.75 34Z" fill="#4B301B"/>
<path d="M9.25 28V28.1804L11.875 29.6804V29.5L9.25 28Z" fill="#4B301B"/>
<path d="M11.875 32.5V32.6804L14.5 34.1804V34L11.875 32.5Z" fill="#4B301B"/>
<path d="M17.125 35.5V35.6804L19.75 37.1804V37L17.125 35.5Z" fill="#664025"/>
<path d="M4 25V25.1804L6.62499 26.6804V26.5L4 25Z" fill="#66432C"/>
<path d="M4 34V34.1804L6.62499 35.6804V35.5L4 34Z" fill="#512F1D"/>
<path d="M17.125 41.5V41.6804L19.75 43.1804V43L17.125 41.5Z" fill="#734A31"/>
<path d="M19.75 40V40.1804L22.375 41.6804V41.5L19.75 40Z" fill="#653F29"/>
<path d="M14.5 37V37.1804L17.125 38.6804V38.5L14.5 37Z" fill="#764E32"/>
<path d="M6.625 23.5V23.6804L9.24999 25.1804V25L6.625 23.5Z" fill="#654228"/>
<path d="M25 46L27.625 44.5L27.625 47.5L25 49L25 46Z" fill="#27140A"/>
<path d="M27.625 41.5L30.25 40L30.25 43L27.625 44.5L27.625 41.5Z" fill="#391B0F"/>
<path d="M30.25 37L32.875 35.5L32.875 38.5L30.25 40L30.25 37Z" fill="#27140A"/>
<path d="M32.875 32.5L35.5 31L35.5 34L32.875 35.5L32.875 32.5Z" fill="#391B0F"/>
<path d="M35.5 28L38.125 26.5L38.125 29.5L35.5 31L35.5 28Z" fill="#27140A"/>
<path d="M38.125 23.5L40.75 22L40.75 25L38.125 26.5L38.125 23.5Z" fill="#27140A"/>
<path d="M40.75 19L43.375 17.5L43.375 20.5L40.75 22L40.75 19Z" fill="#27140A"/>
<path d="M43.375 14.5L46 13L46 16L43.375 17.5L43.375 14.5Z" fill="#135B0A"/>
<path d="M27.625 44.5L30.25 43L30.25 46L27.625 47.5L27.625 44.5Z" fill="#30190C"/>
<path d="M30.25 40L32.875 38.5L32.875 41.5L30.25 43L30.25 40Z" fill="#27140A"/>
<path d="M32.875 35.5L35.5 34L35.5 37L32.875 38.5L32.875 35.5Z" fill="#27140A"/>
<path d="M35.5 31L38.125 29.5L38.125 32.5L35.5 34L35.5 31Z" fill="#30190C"/>
<path d="M38.125 26.5L40.75 25L40.75 28L38.125 29.5L38.125 26.5Z" fill="#30190C"/>
<path d="M40.75 22L43.375 20.5L43.375 23.5L40.75 25L40.75 22Z" fill="#30190C"/>
<path d="M43.375 17.5L46 16L46 19L43.375 20.5L43.375 17.5Z" fill="#196D0F"/>
<path d="M25 40L27.625 38.5L27.625 41.5L25 43L25 40Z" fill="#402314"/>
<path d="M27.625 35.5L30.25 34L30.25 37L27.625 38.5L27.625 35.5Z" fill="#27140A"/>
<path d="M30.25 31L32.875 29.5L32.875 32.5L30.25 34L30.25 31Z" fill="#391B0F"/>
<path d="M32.875 26.5L35.5 25L35.5 28L32.875 29.5L32.875 26.5Z" fill="#27140A"/>
<path d="M35.5 22L38.125 20.5L38.125 23.5L35.5 25L35.5 22Z" fill="#135B0A"/>
<path d="M38.125 17.5L40.75 16L40.75 19L38.125 20.5L38.125 17.5Z" fill="#135B0A"/>
<path d="M25 43L27.625 41.5L27.625 44.5L25 46L25 43Z" fill="#30190C"/>
<path d="M27.625 38.5L30.25 37L30.25 40L27.625 41.5L27.625 38.5Z" fill="#30190C"/>
<path d="M30.25 34L32.875 32.5L32.875 35.5L30.25 37L30.25 34Z" fill="#27140A"/>
<path d="M32.875 29.5L35.5 28L35.5 31L32.875 32.5L32.875 29.5Z" fill="#402312"/>
<path d="M35.5 25L38.125 23.5L38.125 26.5L35.5 28L35.5 25Z" fill="#196D0F"/>
<path d="M38.125 20.5L40.75 19L40.75 22L38.125 23.5L38.125 20.5Z" fill="#196D0F"/>
<path d="M40.75 16L43.375 14.5L43.375 17.5L40.75 19L40.75 16Z" fill="#196D0F"/>
<path d="M25 34L27.625 32.5L27.625 35.5L25 37L25 34Z" fill="#391B0F"/>
<path d="M27.625 29.5L30.25 28L30.25 31L27.625 32.5L27.625 29.5Z" fill="#313133"/>
<path d="M30.25 25L32.875 23.5L32.875 26.5L30.25 28L30.25 25Z" fill="#135B0A"/>
<path d="M32.875 20.5L35.5 19L35.5 22L32.875 23.5L32.875 20.5Z" fill="#207713"/>
<path d="M25 37L27.625 35.5L27.625 38.5L25 40L25 37Z" fill="#30190C"/>
<path d="M27.625 32.5L30.25 31L30.25 34L27.625 35.5L27.625 32.5Z" fill="#30190C"/>
<path d="M30.25 28L32.875 26.5L32.875 29.5L30.25 31L30.25 28Z" fill="#27140A"/>
<path d="M32.875 23.5L35.5 22L35.5 25L32.875 26.5L32.875 23.5Z" fill="#0E4B09"/>
<path d="M35.5 19L38.125 17.5L38.125 20.5L35.5 22L35.5 19Z" fill="#196D0F"/>
<path d="M25 28L27.625 26.5L27.625 29.5L25 31L25 28Z" fill="#135B0A"/>
<path d="M27.625 23.5L30.25 22L30.25 25L27.625 26.5L27.625 23.5Z" fill="#135B0A"/>
<path d="M25 31L27.625 29.5L27.625 32.5L25 34L25 31Z" fill="#27140A"/>
<path d="M27.625 26.5L30.25 25L30.25 28L27.625 29.5L27.625 26.5Z" fill="#27140A"/>
<path d="M30.25 22L32.875 20.5L32.875 23.5L30.25 25L30.25 22Z" fill="#196D0F"/>
<path d="M25 25L27.625 23.5L27.625 26.5L25 28L25 25Z" fill="#207713"/>
<path d="M35.5 43L35.5 40L32.875 41.5L32.875 44.5L35.5 43Z" fill="#30190C"/>
<path d="M38.125 38.5L38.125 35.5L35.5 37L35.5 40L38.125 38.5Z" fill="#391B0F"/>
<path d="M40.75 34L40.75 31L38.125 32.5L38.125 35.5L40.75 34Z" fill="#30190C"/>
<path d="M43.375 29.5L43.375 26.5L40.75 28L40.75 31L43.375 29.5Z" fill="#27140A"/>
<path d="M46 25L46 22L43.375 23.5L43.375 26.5L46 25Z" fill="#27140A"/>
<path d="M43.375 38.5L43.375 35.5L40.75 37L40.75 40L43.375 38.5Z" fill="#27140A"/>
<path d="M32.875 44.5L32.875 41.5L30.25 43L30.25 46L32.875 44.5Z" fill="#313133"/>
<path d="M35.5 40L35.5 37L32.875 38.5L32.875 41.5L35.5 40Z" fill="#402314"/>
<path d="M38.125 35.5L38.125 32.5L35.5 34L35.5 37L38.125 35.5Z" fill="#313133"/>
<path d="M40.75 31L40.75 28L38.125 29.5L38.125 32.5L40.75 31Z" fill="#402312"/>
<path d="M43.375 26.5L43.375 23.5L40.75 25L40.75 28L43.375 26.5Z" fill="#391B0F"/>
<path d="M46 22L46 19L43.375 20.5L43.375 23.5L46 22Z" fill="#135B0A"/>
<path d="M40.75 40L40.75 37L38.125 38.5L38.125 41.5L40.75 40Z" fill="#391B0F"/>
<path d="M43.375 35.5L43.375 32.5L40.75 34L40.75 37L43.375 35.5Z" fill="#30190C"/>
<path d="M46 31L46 28L43.375 29.5L43.375 32.5L46 31Z" fill="#30190C"/>
<path d="M46 34L46 31L43.375 32.5L43.375 35.5L46 34Z" fill="#391B0F"/>
<path d="M38.125 41.5L38.125 38.5L35.5 40L35.5 43L38.125 41.5Z" fill="#30190C"/>
<path d="M40.75 37L40.75 34L38.125 35.5L38.125 38.5L40.75 37Z" fill="#402312"/>
<path d="M43.375 32.5L43.375 29.5L40.75 31L40.75 34L43.375 32.5Z" fill="#391B0F"/>
<path d="M46 28L46 25L43.375 26.5L43.375 29.5L46 28Z" fill="#27140A"/>
<path d="M46 37L46 34L43.375 35.5L43.375 38.5L46 37Z" fill="#402314"/>
<path d="M25 31V31.1804L27.625 29.6804V29.5L25 31Z" fill="#1F0E07"/>
<path d="M30.25 28V28.1804L35.5 25.1804V25L30.25 28Z" fill="#1F0E07"/>
<path d="M27.625 26.5V26.6804L30.25 25.1804V25L27.625 26.5Z" fill="#1F0E07"/>
<path d="M35.5 28V28.1804L38.125 26.6804V26.5L35.5 28Z" fill="#1F0E07"/>
<path d="M38.125 23.5V23.6804L40.75 22.1804V22L38.125 23.5Z" fill="#1F0E07"/>
<path d="M40.75 19V19.1804L43.375 17.6804V17.5L40.75 19Z" fill="#1F0E07"/>
<path d="M43.375 23.5V23.6804L46 22.1804V22L43.375 23.5Z" fill="#1F0E07"/>
<path d="M40.75 28V28.1804L43.375 26.6804V26.5L40.75 28Z" fill="#1F0E07"/>
<path d="M30.25 34V34.1804L32.875 32.6804V32.5L30.25 34Z" fill="#1F0E09"/>
<path d="M32.875 35.5V35.6804L35.5 34.1804V34L32.875 35.5Z" fill="#1F0E09"/>
<path d="M38.125 32.5V32.6804L40.75 31.1804V31L38.125 32.5Z" fill="#25150A"/>
<path d="M25 37V37.1804L27.625 35.6804V35.5L25 37Z" fill="#251106"/>
<path d="M25 46V46.1804L27.625 44.6804V44.5L25 46Z" fill="#1F0E09"/>
<path d="M38.125 38.5V38.6804L40.75 37.1804V37L38.125 38.5Z" fill="#2E1507"/>
<path d="M40.75 34V34.1804L43.375 32.6804V32.5L40.75 34Z" fill="#25150A"/>
<path d="M35.5 37V37.1804L38.125 35.6804V35.5L35.5 37Z" fill="#2B170A"/>
<path d="M27.625 32.5V32.6804L30.25 31.1804V31L27.625 32.5Z" fill="#271207"/>
</g>
<defs>
<clipPath id="clip0_26_934">
<rect width="42" height="48" fill="white" transform="translate(4 1)"/>
</clipPath>
</defs>
</svg>
