<svg width="128" height="128" viewBox="0 0 128 128" fill="none" xmlns="http://www.w3.org/2000/svg">
<g clip-path="url(#clip0_105_2)">
<circle cx="64" cy="64" r="59" stroke="white" stroke-width="10"/>
<path d="M61.1468 28.7811C62.0449 26.0172 65.9551 26.0172 66.8532 28.7812L73.2051 48.3303C73.6067 49.5664 74.7586 50.4033 76.0582 50.4033H96.6134C99.5196 50.4033 100.728 54.1221 98.3768 55.8303L81.7473 67.9123C80.6958 68.6763 80.2559 70.0304 80.6575 71.2664L87.0094 90.8156C87.9074 93.5795 84.744 95.8779 82.3929 94.1697L65.7634 82.0877C64.7119 81.3237 63.2881 81.3237 62.2366 82.0877L45.6071 94.1697C43.256 95.8779 40.0926 93.5795 40.9906 90.8156L47.3425 71.2664C47.7441 70.0304 47.3042 68.6763 46.2527 67.9123L29.6232 55.8303C27.2721 54.1221 28.4804 50.4033 31.3866 50.4033H51.9418C53.2414 50.4033 54.3933 49.5664 54.7949 48.3303L61.1468 28.7811Z" fill="white"/>
</g>
<defs>
<clipPath id="clip0_105_2">
<rect width="128" height="128" fill="white"/>
</clipPath>
</defs>
</svg>
