<svg width="128" height="128" viewBox="0 0 128 128" fill="none" xmlns="http://www.w3.org/2000/svg">
<g clip-path="url(#clip0_105_2)">
<path d="M117.214 28.4435C122.759 36.742 126.265 46.1901 127.501 56.0206C128.052 60.4044 124.418 64 120 64H72C67.5817 64 64 67.5817 64 72V120C64 124.418 60.4044 128.052 56.0206 127.501C46.1901 126.265 36.742 122.759 28.4435 117.214C17.9188 110.182 9.71572 100.186 4.87171 88.4917C0.0277019 76.7973 -1.23971 63.929 1.22974 51.5142C3.6992 39.0994 9.7946 27.6957 18.7452 18.7452C27.6957 9.79461 39.0994 3.6992 51.5142 1.22974C63.929 -1.23971 76.7973 0.0277014 88.4917 4.87171C100.186 9.71572 110.182 17.9188 117.214 28.4435Z" fill="white"/>
</g>
<defs>
<clipPath id="clip0_105_2">
<rect width="128" height="128" fill="white"/>
</clipPath>
</defs>
</svg>
