<svg width="128" height="128" viewBox="0 0 128 128" fill="none" xmlns="http://www.w3.org/2000/svg">
<path d="M64 12C52.0495 12 40.6342 15.9809 31.4531 23.1974C28.9339 25.1734 28.5498 28.8191 30.5455 31.3209C32.5411 33.8226 36.2066 34.204 38.7259 32.2222C45.8648 26.612 54.6967 23.5556 64 23.5556C85.4769 23.5556 103.071 40.064 104.617 60.9998C104.739 62.6522 103.384 64 101.727 64H99.1161C96.6393 64 95.2295 66.8316 96.7222 68.808L108.152 83.9413C109.352 85.5306 111.739 85.5306 112.939 83.9413L124.369 68.808C125.861 66.8316 124.452 64 121.975 64H119.364C117.707 64 116.373 62.654 116.278 60.9999C114.713 33.6749 91.9082 12 64 12ZM19.8485 44.0587C18.6482 42.4694 16.2609 42.4694 15.0606 44.0587L3.63123 59.192C2.13855 61.1684 3.54843 64 6.0252 64H8.63636C10.2932 64 11.6273 65.346 11.722 67.0001C13.2869 94.3251 36.0919 116 64 116C75.9564 116 87.3658 112.025 96.5469 104.803C99.0662 102.827 99.4502 99.1809 97.4546 96.6791C95.4589 94.1774 91.7934 93.796 89.2742 95.7778C82.1294 101.394 73.3091 104.444 64 104.444C42.5231 104.444 24.929 87.936 23.3831 67.0002C23.2611 65.3478 24.6159 64 26.2727 64H28.8839C31.3607 64 32.7705 61.1684 31.2779 59.192L19.8485 44.0587Z" fill="white"/>
</svg>
