<svg width="128" height="128" viewBox="0 0 128 128" fill="none" xmlns="http://www.w3.org/2000/svg">
<path d="M13.0371 42.6113C14.4769 40.6595 17.3481 40.6597 18.7881 42.6113L30.5967 58.6182C32.3686 61.0208 30.7116 64.5 27.7207 64.5H25.0234C23.5901 64.5 22.4318 65.6914 22.5361 67.1377C24.1152 89.0286 42.0829 106.277 64 106.277C73.5038 106.277 82.5055 103.09 89.7979 97.2217L90.0654 97.0166C92.8689 94.9827 96.7905 95.4767 98.957 98.2568C101.181 101.112 100.76 105.279 97.9375 107.546L97.9385 107.547C88.3648 115.257 76.4669 119.5 64 119.5C34.8937 119.5 11.1223 96.3588 9.49121 67.2012C9.40656 65.6874 8.2209 64.5 6.80273 64.5H4.10547C1.11453 64.5 -0.542743 61.0208 1.22949 58.6182L13.0371 42.6113ZM64 8.5C93.1064 8.5 116.878 31.6412 118.509 60.7988L118.537 61.0791C118.743 62.4566 119.868 63.4998 121.197 63.5H123.896C126.887 63.5002 128.542 66.9795 126.771 69.3818L114.962 85.3887C113.522 87.3403 110.651 87.3405 109.212 85.3887L97.4033 69.3818C95.6313 66.9792 97.2884 63.5 100.279 63.5H102.977C104.41 63.5 105.568 62.3086 105.464 60.8623C103.885 38.9714 85.9171 21.7227 64 21.7227C54.7993 21.7227 46.0526 24.7195 38.8906 30.2363L38.2021 30.7783C35.3857 33.0464 31.2792 32.6131 29.043 29.7432C26.8186 26.8884 27.24 22.7197 30.0625 20.4531C39.6358 12.7497 51.5394 8.5 64 8.5Z" fill="white" stroke="white"/>
</svg>
