<svg width="128" height="128" viewBox="0 0 128 128" fill="none" xmlns="http://www.w3.org/2000/svg">
<path d="M120 100.071V61.3711C120 57.6439 119.997 55.7792 119.542 54.0448C119.139 52.5077 118.477 51.0532 117.582 49.7388C116.572 48.2556 115.167 47.0256 112.352 44.5712L78.752 15.2738C73.5257 10.7168 70.9125 8.4394 67.9717 7.57274C65.3803 6.80909 62.6183 6.80909 60.0269 7.57274C57.0883 8.43875 54.4789 10.714 49.2605 15.2641L15.6494 44.5712C12.8345 47.0257 11.4303 48.2556 10.4199 49.7388C9.52454 51.0532 8.85784 52.5077 8.4548 54.0448C8 55.7792 8 57.6438 8 61.3711V100.071C8 106.572 8 109.821 9.06569 112.384C10.4866 115.803 13.2102 118.522 16.6406 119.938C19.2134 121 22.475 121 28.9982 121C35.5214 121 38.7866 121 41.3594 119.938C44.7898 118.522 47.5127 115.803 48.9336 112.385C49.9993 109.821 50 106.571 50 100.071V93.095C50 85.39 56.268 82 64 82C71.732 82 78 85.39 78 93.095V100.071C78 106.571 78 109.821 79.0657 112.385C80.4866 115.803 83.2102 118.522 86.6406 119.938C89.2134 121 92.475 121 98.9982 121C105.521 121 108.787 121 111.359 119.938C114.79 118.522 117.513 115.803 118.934 112.384C119.999 109.821 120 106.572 120 100.071Z" stroke="white" stroke-width="10" stroke-linecap="round" stroke-linejoin="round"/>
</svg>
