<svg width="128" height="128" viewBox="0 0 128 128" fill="none" xmlns="http://www.w3.org/2000/svg">
<path d="M12 52.1884C12 50.9642 12.5606 49.8074 13.5214 49.0489L61.7714 10.9568C63.2247 9.80948 65.2753 9.80948 66.7286 10.9568L114.979 49.0489C115.939 49.8074 116.5 50.9642 116.5 52.1884V115C116.5 117.209 114.709 119 112.5 119H81.75C81.1977 119 80.75 118.552 80.75 118V88C80.75 86.8954 79.8546 86 78.75 86H49.75C48.6454 86 47.75 86.8954 47.75 88V118C47.75 118.552 47.3023 119 46.75 119H16C13.7909 119 12 117.209 12 115L12 52.1884Z" stroke="white" stroke-width="10"/>
</svg>
