<svg width="128" height="128" viewBox="0 0 128 128" fill="none" xmlns="http://www.w3.org/2000/svg">
<path d="M87.5714 64.019V71.8572C87.5714 80.5359 94.607 87.5715 103.286 87.5715C111.964 87.5715 119 80.5359 119 71.8572V64C119 52.2312 115.226 40.7734 108.231 31.3092C101.236 21.845 91.3871 14.8738 80.1363 11.4208C68.8855 7.96777 56.823 8.21436 45.7229 12.1249C34.6229 16.0354 25.0705 23.4068 18.4685 33.1494C11.8664 42.8919 8.56448 54.4919 9.04611 66.2509C9.52773 78.0098 13.7684 89.3057 21.1451 98.4757C28.5217 107.646 38.6478 114.206 50.0305 117.196C61.4132 120.186 73.4499 119.445 84.3806 115.083M87.5714 64.019C87.5612 77.0284 77.0118 87.5715 64 87.5715C50.9819 87.5715 40.4286 77.0182 40.4286 64C40.4286 50.9819 50.9819 40.4286 64 40.4286C77.0118 40.4286 87.5612 50.9716 87.5714 63.981M87.5714 64.019V63.981M87.5714 63.981V40.4286" stroke="white" stroke-width="12" stroke-linecap="round" stroke-linejoin="round"/>
</svg>
