<svg width="128" height="128" viewBox="0 0 128 128" fill="none" xmlns="http://www.w3.org/2000/svg">
<rect x="18" y="24" width="18" height="79" rx="2" fill="white"/>
<path d="M42 58C42 56.8954 42.8954 56 44 56H84C85.1046 56 86 56.8954 86 58V70C86 71.1046 85.1046 72 84 72H44C42.8954 72 42 71.1046 42 70V58Z" fill="white"/>
<rect x="92" y="24" width="18" height="79" rx="2" fill="white"/>
<path d="M0 37C0 32.5817 3.58172 29 8 29H10C11.1046 29 12 29.8954 12 31V96C12 97.1046 11.1046 98 10 98H8C3.58172 98 0 94.4183 0 90V37Z" fill="white"/>
<path d="M116 31C116 29.8954 116.895 29 118 29H120C124.418 29 128 32.5817 128 37V90C128 94.4183 124.418 98 120 98H118C116.895 98 116 97.1046 116 96V31Z" fill="white"/>
</svg>
